<?xml version="1.0" encoding="UTF-8" standalone="no"?>
<!-- Generator: Adobe Illustrator 13.0.2, SVG Export Plug-In . SVG Version: 6.00 Build 14948)  -->

<svg
   xmlns:dc="http://purl.org/dc/elements/1.1/"
   xmlns:cc="http://creativecommons.org/ns#"
   xmlns:rdf="http://www.w3.org/1999/02/22-rdf-syntax-ns#"
   xmlns:svg="http://www.w3.org/2000/svg"
   xmlns="http://www.w3.org/2000/svg"
   xmlns:sodipodi="http://sodipodi.sourceforge.net/DTD/sodipodi-0.dtd"
   xmlns:inkscape="http://www.inkscape.org/namespaces/inkscape"
   version="1.1"
   id="Layer_1"
   x="0px"
   y="0px"
   width="150"
   height="150"
   viewBox="0 0 72.185466 75.062448"
   xml:space="preserve"
   inkscape:version="0.48.4 r9939"
   sodipodi:docname="north_arrow.svg"><metadata
     id="metadata3187"><rdf:RDF><cc:Work
         rdf:about=""><dc:format>image/svg+xml</dc:format><dc:type
           rdf:resource="http://purl.org/dc/dcmitype/StillImage" /><dc:title /></cc:Work></rdf:RDF></metadata><defs
     id="defs3185" /><sodipodi:namedview
     pagecolor="#ffffff"
     bordercolor="#666666"
     borderopacity="1"
     objecttolerance="10"
     gridtolerance="10"
     guidetolerance="10"
     inkscape:pageopacity="0"
     inkscape:pageshadow="2"
     inkscape:window-width="1869"
     inkscape:window-height="1056"
     id="namedview3183"
     showgrid="false"
     inkscape:zoom="7.168453"
     inkscape:cx="85.845648"
     inkscape:cy="73.665297"
     inkscape:window-x="51"
     inkscape:window-y="24"
     inkscape:window-maximized="1"
     inkscape:current-layer="Layer_1" /><path
     style="fill:none"
     d="m 51.085461,39.199379 -14.919939,0 c 6.643822,-4.35e-4 13.28619,-4.35e-4 19.930011,-4.35e-4"
     id="path3223"
     inkscape:connector-curvature="0" /><path
     style="fill:none"
     d="m 51.098468,39.199379 -0.01298,0"
     id="path3221"
     inkscape:connector-curvature="0" /><path
     style="fill:#000000;fill-opacity:0.47031962"
     d="M 36.21149,38.833437 C 36.19526,27.65837 36.178,16.483302 36.16157,5.3080168 c 0.979694,5.6337392 1.96022,11.2674772 2.939705,16.9014342 0.489223,2.810563 0.977823,5.621344 1.467045,8.432343 0.116898,0.672091 0.234003,1.343965 0.350693,2.016492 0.05886,0.335719 0.116898,0.672091 0.175555,1.00781 0.07155,0.409865 0.0041,0.423781 -0.257508,0.697748 -0.941629,0.984547 -1.883882,1.969309 -2.825928,2.953854 -0.616313,0.64426 -1.232625,1.288955 -1.849146,1.933214 0.01644,-0.139376 0.03287,-0.2781 0.0495,-0.417475"
     id="path3127"
     inkscape:connector-curvature="0" /><path
     style="fill:#000000;fill-opacity:0.47031962"
     d="m 36.21149,38.833437 c 10.824473,0.139375 21.648531,0.278534 32.472797,0.417475 -5.399549,1.014116 -10.799098,2.028232 -16.199062,3.04235 -2.693846,0.505753 -5.387277,1.011942 -8.081746,1.517695 -0.644393,0.120893 -1.288163,0.241571 -1.932556,0.362681 -0.321989,0.06024 -0.644185,0.121328 -0.966173,0.181776 -0.393334,0.07392 -0.408726,0.0022 -0.673098,-0.271359 -0.949741,-0.983023 -1.900107,-1.966699 -2.849849,-2.949287 -0.406646,-0.420953 -0.812875,-0.841908 -1.219521,-1.26308 -0.175762,-0.180906 -0.391254,-0.35594 -0.533112,-0.567287 -0.09277,-0.137636 -0.03599,-0.31876 -0.01768,-0.470964"
     id="path3131"
     inkscape:connector-curvature="0" /><path
     style="fill:#010101;fill-opacity:0.47058824"
     d="M 36.21149,38.833437 C 25.387224,38.972812 14.562543,39.112406 3.7382766,39.250912 9.1303374,38.224184 14.522397,37.197457 19.914459,36.171164 c 2.686357,-0.511843 5.372923,-1.023031 8.059282,-1.534655 0.634409,-0.120677 1.268818,-0.241571 1.903019,-0.362464 0.317204,-0.06002 0.634409,-0.120677 0.951613,-0.180906 0.343414,-0.06566 0.348406,-0.05392 0.574712,0.18395 0.947662,0.990633 1.895324,1.981049 2.842985,2.971682 0.638361,0.667307 1.277139,1.33505 1.9155,2.002141 0.01684,-0.139376 0.03328,-0.2781 0.04992,-0.417475"
     id="path3135"
     inkscape:connector-curvature="0" /><path
     style="fill:#010101;fill-opacity:0.47058824"
     d="m 36.21149,38.833437 c -0.928941,1.028467 -1.857882,2.057369 -2.786824,3.086054 -0.445958,0.493794 -0.891916,0.986937 -1.337666,1.481166 -0.214244,0.237221 -0.428902,0.47466 -0.643146,0.711882 -0.280387,0.310497 -0.277267,0.312671 -0.196563,0.733843 0.534776,2.800779 1.06976,5.601558 1.604535,8.402554 1.071215,5.60982 2.142223,11.219423 3.213646,16.828591 0.03204,0.16873 0.06427,0.337459 0.0963,0.505319 0,-5.290626 0,-10.581252 0,-15.871878 0,-2.684234 0,-5.36825 0,-8.052701 0,-1.291564 0,-2.584214 0,-3.87556 -2.07e-4,-1.30113 -0.104832,-2.656619 0.04971,-3.94927"
     id="path3139"
     inkscape:connector-curvature="0" /><text
     xml:space="preserve"
     style="font-size:6.10439512000000040px;font-style:italic;font-weight:normal;line-height:125%;letter-spacing:0px;word-spacing:0px;fill:#000000;fill-opacity:0.47058824;stroke:none;font-family:Century Schoolbook L;-inkscape-font-specification:Century Schoolbook L Italic;font-stretch:normal;font-variant:normal;text-anchor:start;text-align:start;writing-mode:lr"
     x="33.350143"
     y="5.3533831"
     id="text3764"
     sodipodi:linespacing="125%"
     transform="scale(1.0286492,0.97214872)"><tspan
       sodipodi:role="line"
       id="tspan3766"
       x="33.350143"
       y="5.3533831">N</tspan></text>
<text
     xml:space="preserve"
     style="font-size:6.10439491px;font-style:italic;font-variant:normal;font-weight:normal;font-stretch:normal;text-align:start;line-height:125%;letter-spacing:0px;word-spacing:0px;writing-mode:lr-tb;text-anchor:start;fill:#000000;fill-opacity:0.47058824;stroke:none;font-family:Century Schoolbook L;-inkscape-font-specification:Century Schoolbook L Italic"
     x="67.247589"
     y="42.512142"
     id="text3764-1"
     sodipodi:linespacing="125%"
     transform="scale(1.0286492,0.97214872)"><tspan
       sodipodi:role="line"
       id="tspan3766-3"
       x="67.247589"
       y="42.512142">E</tspan></text>
<text
     xml:space="preserve"
     style="font-size:5.65839958px;font-style:italic;font-variant:normal;font-weight:normal;font-stretch:normal;text-align:start;line-height:125%;letter-spacing:0px;word-spacing:0px;writing-mode:lr-tb;text-anchor:start;fill:#000000;fill-opacity:0.47058824;stroke:none;font-family:Century Schoolbook L;-inkscape-font-specification:Century Schoolbook L Italic"
     x="30.629942"
     y="82.855186"
     id="text3764-13"
     sodipodi:linespacing="125%"
     transform="scale(1.1097273,0.90112226)"><tspan
       sodipodi:role="line"
       id="tspan3766-2"
       x="30.629942"
       y="82.855186">S</tspan></text>
<text
     xml:space="preserve"
     style="font-size:5.4681263px;font-style:italic;font-variant:normal;font-weight:normal;font-stretch:normal;text-align:start;line-height:125%;letter-spacing:0px;word-spacing:0px;writing-mode:lr-tb;text-anchor:start;fill:#000000;fill-opacity:0.47058824;stroke:none;font-family:Century Schoolbook L;-inkscape-font-specification:Century Schoolbook L Italic"
     x="-1.2530794"
     y="42.760807"
     id="text3764-0"
     sodipodi:linespacing="125%"
     transform="scale(1.0373304,0.96401297)"><tspan
       sodipodi:role="line"
       id="tspan3766-0"
       x="-1.2530794"
       y="42.760807">W</tspan></text>
</svg>